HIERARCHY
ROOT Hips
{
	OFFSET 0.000000 0.000000 0.000000
	CHANNELS 6 Xposition Yposition Zposition Xrotation Yrotation Zrotation
	JOINT LeftUpLeg_virtual
	{
		OFFSET 0.000000 0.000000 0.000000
		CHANNELS 3 Xrotation Yrotation Zrotation
		JOINT LeftUpLeg
		{
			OFFSET 11.394100 -6.187798 -0.413800
			CHANNELS 3 Xrotation Yrotation Zrotation
			JOINT LeftLeg
			{
				OFFSET 0.430247 -32.302673 3.732800
				CHANNELS 3 Xrotation Yrotation Zrotation
				JOINT LeftFoot
				{
					OFFSET -0.430247 -48.264931 -6.423300
					CHANNELS 3 Xrotation Yrotation Zrotation
					JOINT LeftToeBase
					{
						OFFSET 4.230900 -16.068199 23.438400
						CHANNELS 3 Xrotation Yrotation Zrotation
						JOINT LeftToe_End
						{
							OFFSET 4.510700 0.695400 19.974600
							CHANNELS 3 Xrotation Yrotation Zrotation
							End Site
							{
								OFFSET 0 0 0
							}
						}
					}
				}
			}
		}
	}
	JOINT RightUpLeg_virtual
	{
		OFFSET 0.000000 0.000000 0.000000
		CHANNELS 3 Xrotation Yrotation Zrotation
		JOINT RightUpLeg
		{
			OFFSET -11.333700 -6.187798 -0.413800
			CHANNELS 3 Xrotation Yrotation Zrotation
			JOINT RightLeg
			{
				OFFSET -0.430392 -32.302628 3.733000
				CHANNELS 3 Xrotation Yrotation Zrotation
				JOINT RightFoot
				{
					OFFSET 0.430392 -48.264973 -6.423500
					CHANNELS 3 Xrotation Yrotation Zrotation
					JOINT RightToeBase
					{
						OFFSET -4.230900 -16.068199 23.438400
						CHANNELS 3 Xrotation Yrotation Zrotation
						JOINT RightToe_End
						{
							OFFSET -4.510700 0.695400 19.974600
							CHANNELS 3 Xrotation Yrotation Zrotation
							End Site
							{
								OFFSET 0 0 0
							}
						}
					}
				}
			}
		}
	}
	JOINT Spine_virtual
	{
		OFFSET 0.000000 0.000000 0.000000
		CHANNELS 3 Xrotation Yrotation Zrotation
		JOINT Spine
		{
			OFFSET -0.002400 12.777504 0.315300
			CHANNELS 3 Xrotation Yrotation Zrotation
			JOINT Spine1
			{
				OFFSET -0.002067 5.816869 0.032633
				CHANNELS 3 Xrotation Yrotation Zrotation
				JOINT Spine1_split
				{
					OFFSET -0.002067 5.816869 0.032633
					CHANNELS 3 Xrotation Yrotation Zrotation
					JOINT Spine2
					{
						OFFSET -0.002067 5.816869 0.032633
						CHANNELS 3 Xrotation Yrotation Zrotation
						JOINT Neck_virtual
						{
							OFFSET 0.000000 0.000000 0.000000
							CHANNELS 3 Xrotation Yrotation Zrotation
							JOINT Neck
							{
								OFFSET -0.003700 21.199493 -0.826900
								CHANNELS 3 Xrotation Yrotation Zrotation
								JOINT Head
								{
									OFFSET 0.000000 20.442200 4.834800
									CHANNELS 3 Xrotation Yrotation Zrotation
									JOINT HeadTop_End
									{
										OFFSET 0.000000 34.668396 4.968400
										CHANNELS 3 Xrotation Yrotation Zrotation
										End Site
										{
											OFFSET 0 0 0
										}
									}
								}
							}
						}
						JOINT LeftShoulder_virtual
						{
							OFFSET 0.000000 0.000000 0.000000
							CHANNELS 3 Xrotation Yrotation Zrotation
							JOINT LeftShoulder
							{
								OFFSET 3.288150 8.794197 -1.372250
								CHANNELS 3 Xrotation Yrotation Zrotation
								JOINT LeftShoulder_split
								{
									OFFSET 3.288150 8.794197 -1.372250
									CHANNELS 3 Xrotation Yrotation Zrotation
									JOINT LeftArm
									{
										OFFSET 11.953299 -2.279007 -0.146200
										CHANNELS 3 Xrotation Yrotation Zrotation
										JOINT LeftForeArm
										{
											OFFSET 18.448900 0.000000 0.000000
											CHANNELS 3 Xrotation Yrotation Zrotation
											JOINT LeftHand
											{
												OFFSET 29.527798 0.000000 0.000000
												CHANNELS 3 Xrotation Yrotation Zrotation
												End Site
												{
													OFFSET 0 0 0
												}
											}
										}
									}
								}
							}
						}
						JOINT RightShoulder_virtual
						{
							OFFSET 0.000000 0.000000 0.000000
							CHANNELS 3 Xrotation Yrotation Zrotation
							JOINT RightShoulder
							{
								OFFSET -3.249400 8.794197 -1.372250
								CHANNELS 3 Xrotation Yrotation Zrotation
								JOINT RightShoulder_split
								{
									OFFSET -3.249400 8.794197 -1.372250
									CHANNELS 3 Xrotation Yrotation Zrotation
									JOINT RightArm
									{
										OFFSET -11.953299 -2.279007 -0.146200
										CHANNELS 3 Xrotation Yrotation Zrotation
										JOINT RightForeArm
										{
											OFFSET -18.448900 0.000000 0.000000
											CHANNELS 3 Xrotation Yrotation Zrotation
											JOINT RightHand
											{
												OFFSET -29.527802 0.000000 0.000000
												CHANNELS 3 Xrotation Yrotation Zrotation
												End Site
												{
													OFFSET 0 0 0
												}
											}
										}
									}
								}
							}
						}
					}
				}
			}
		}
	}
}
MOTION
Frames: 4
Frame Time: 0.03333333
-6.295579 112.350883 177.474396 0.000000 0.000000 0.000000 23.702348 7.763219 -0.725577 -30.447050 11.281552 13.439921 53.019357 14.538235 1.815641 22.560924 -0.146068 5.123759 -0.029100 -0.041868 0.065442 0.000000 0.000000 0.000000 23.702348 7.763219 -0.725577 -59.410611 -28.445071 -12.169806 37.589601 4.688214 -12.566941 35.959607 2.360889 5.061563 -28.034930 -0.481628 -1.344196 0.000000 0.000000 0.000000 23.702348 7.763219 -0.725577 -2.463824 -0.597082 0.323321 -4.931170 -0.810807 0.177927 0.000000 0.000000 0.000000 0.000000 0.000000 0.000000 -4.931174 -0.810806 0.177927 -7.350266 3.966309 -6.500798 -32.165611 -0.130246 4.295689 0.000000 0.000000 0.000000 -4.931174 -0.810806 0.177927 8.830583 1.444240 29.983496 0.000000 0.000000 0.000000 -50.163057 -13.200036 7.800928 -38.210728 -44.905294 -5.993777 0.000000 0.000000 0.000000 -4.931174 -0.810806 0.177927 -7.160048 -23.242394 -38.306662 0.000000 0.000000 0.000000 -93.984933 23.703123 43.728671 -27.175900 55.510624 -4.699081 0.000000 0.000000 0.000000 
-6.651512 107.985748 185.266357 0.000000 0.000000 0.000000 19.867748 9.016190 -0.884001 -26.545095 8.826759 13.569002 50.116615 18.396613 -0.605321 20.718006 -0.829344 5.601081 -6.971459 2.194356 -17.499206 0.000000 0.000000 0.000000 19.867748 9.016190 -0.884001 -63.271840 -26.709807 -12.484105 40.934314 1.982644 -12.881530 34.382964 1.999432 0.878817 -27.192697 3.130691 -0.101276 0.000000 0.000000 0.000000 19.867748 9.016190 -0.884001 -2.297656 -0.783042 0.035081 -4.594410 -1.061327 0.101277 0.000000 0.000000 0.000000 0.000000 0.000000 0.000000 -4.594414 -1.061326 0.101277 -4.837209 3.021062 -5.623374 -32.648284 -0.269690 4.329763 0.000000 0.000000 0.000000 -4.594414 -1.061326 0.101277 10.044627 0.256263 32.051216 0.000000 0.000000 0.000000 -48.561716 -10.210825 11.799413 -38.609861 -41.548505 -5.423193 0.000000 0.000000 0.000000 -4.594414 -1.061326 0.101277 -8.323183 -24.135450 -40.312688 0.000000 0.000000 0.000000 -89.460349 26.675442 38.968241 -28.899610 50.290878 -7.128662 0.000000 0.000000 0.000000 
-6.737791 104.131905 192.540802 0.000000 0.000000 0.000000 15.555186 10.352316 -1.059136 -25.130995 4.901167 12.652627 49.499679 21.318284 -3.176670 18.153029 -1.842696 4.147748 -13.897145 9.491334 -34.360834 0.000000 0.000000 0.000000 15.555186 10.352316 -1.059136 -65.968194 -25.588388 -12.673307 45.485013 1.157451 -13.918921 32.745003 0.098811 -1.376708 -24.566177 1.997658 2.380252 0.000000 0.000000 0.000000 15.555186 10.352316 -1.059136 -1.884011 -1.015318 -0.116800 -3.758564 -1.458367 0.264352 0.000000 0.000000 0.000000 0.000000 0.000000 0.000000 -3.758560 -1.458363 0.264352 -2.312996 3.118226 -4.492907 -31.180056 -0.574887 3.975780 0.000000 0.000000 0.000000 -3.758560 -1.458363 0.264352 9.718423 1.273662 32.721923 0.000000 0.000000 0.000000 -47.199831 -10.995447 14.448374 -37.509336 -36.402975 -3.708624 0.000000 0.000000 0.000000 -3.758560 -1.458363 0.264352 -8.350553 -23.530584 -42.083203 0.000000 0.000000 0.000000 -83.150101 28.065865 30.864614 -31.664334 45.607451 -6.457777 0.000000 0.000000 0.000000 
-6.716048 102.527779 199.081711 0.000000 0.000000 0.000000 11.424856 11.692149 -1.448809 -28.474099 4.086816 11.183817 50.814237 20.575960 -2.177614 11.470385 -2.367383 0.151683 -22.359698 8.903551 -20.682317 0.000000 0.000000 0.000000 11.424856 11.692149 -1.448809 -64.204830 -25.657578 -13.013109 44.837870 0.505401 -13.056736 32.140698 -0.625106 -4.634253 -20.453165 -1.741975 5.336361 0.000000 0.000000 0.000000 11.424856 11.692149 -1.448809 -1.342933 -1.286378 -0.045743 -2.665330 -2.036632 0.637363 0.000000 0.000000 0.000000 0.000000 0.000000 0.000000 -2.665333 -2.036632 0.637364 -0.982932 2.569753 -4.265421 -28.250610 -0.913073 4.381824 0.000000 0.000000 0.000000 -2.665333 -2.036632 0.637364 11.255587 -1.044330 34.818679 0.000000 0.000000 0.000000 -45.524246 -2.444839 17.048987 -40.454749 -38.976990 -4.141866 0.000000 0.000000 0.000000 -2.665333 -2.036632 0.637364 -6.438583 -21.372990 -43.150471 0.000000 0.000000 0.000000 -76.035585 24.047213 21.266796 -32.687742 48.066114 -5.222143 0.000000 0.000000 0.000000 
